{"title":"The.Extra.Man.2010.LiMiTED.720p.BRRip.H264.Feel-Free","uid":5968075,"size":1688363992,"categoryP":"video","categoryS":"hd___movies","magnet":"?xt=urn:btih:0f0749e925251b584128984c95f51fe91c391e64&amp;dn=The.Extra.Man.2010.LiMiTED.720p.BRRip.H264.Feel-Free&amp;tr=udp%3A%2F%2Ftracker.openbittorrent.com%3A80&amp;tr=udp%3A%2F%2Fopen.demonii.com%3A1337&amp;tr=udp%3A%2F%2Ftracker.coppersurfer.tk%3A6969&amp;tr=udp%3A%2F%2Fexodus.desync.com%3A6969","seeders":0,"leechers":1,"uploader":"deffjam555","files":9,"time":1290179431,"description":"Genre:Comedy\nLanguage:English\nIMDb:http://www.imdb.com/title/tt1361313/\nSource:LiMiTED.720p.BluRay.x264-BRMP\n\nGeneral\nComplete name :The.Extra.Man.2010.LiMiTED.720p.BRRip.H264.Feel-Free\nFormat : MPEG-4\nFormat profile : Base Media\nCodec ID : mp42\nFile size : 1.57 GiB\nDuration : 1h 47mn\nOverall bit rate : 2 087 Kbps\nVideo #1\nCodec ID : avc1\nCodec ID/Info : Advanced Video Coding\nDuration : 1h 47mn\nBit rate mode : Variable\nBit rate : 1 606 Kbps\nWidth : 1 280 pixels\nHeight : 544 pixels\nDisplay aspect ratio : 2.35:1\nFrame rate mode : Constant\nFrame rate : 23.976 fps\nResolution : 24 bits\nColorimetry : 4:2:0\nScan type : Progressive\nBits/(Pixel*Frame) : 0.096\nStream size : 1.21 GiB (77%)\nAudio #2\nID : 2\nFormat : AAC\nFormat/Info : Advanced Audio Codec\nFormat version : Version 4\nFormat profile : LC\nFormat settings, SBR : No\nCodec ID : 40\nDuration : 1h 47mn\nBit rate mode : Constant\nBit rate : 477 Kbps\nNominal bit rate : 480 Kbps\nChannel(s) : 6 channels\nChannel positions : Front: L C R, Rear: L R, LFE\nSampling rate : 48.0 KHz\nResolution : 16 bits\nStream size : 367 MiB (23%)\n\nPlot:\nA man who escorts wealthy widows in New York's Upper East Side takes a young aspiring playwright under his wing\n\n\nscreens\n &lt;a href=&quot;\nhttp://rapidhdd.com/images/855441vlcsnap-2010-11-19-07h21m32s198.png&quot; rel=&quot;nofollow&quot; target=&quot;_NEW&quot;&gt;\nhttp://rapidhdd.com/images/855441vlcsnap-2010-11-19-07h21m32s198.png&lt;/a&gt; &lt;a href=&quot;\nhttp://www.rapidhdd.com/images/543204vlcsnap-2010-11-19-07h21m36s237.png&quot; rel=&quot;nofollow&quot; target=&quot;_NEW&quot;&gt;\nhttp://www.rapidhdd.com/images/543204vlcsnap-2010-11-19-07h21m36s237.png&lt;/a&gt; &lt;a href=&quot;\nhttp://www.rapidhdd.com/images/725823vlcsnap-2010-11-19-07h22m39s86.png&quot; rel=&quot;nofollow&quot; target=&quot;_NEW&quot;&gt;\nhttp://www.rapidhdd.com/images/725823vlcsnap-2010-11-19-07h22m39s86.png&lt;/a&gt; &lt;a href=&quot;\nhttp://www.rapidhdd.com/images/251769vlcsnap-2010-11-19-07h22m21s163.png&quot; rel=&quot;nofollow&quot; target=&quot;_NEW&quot;&gt;\nhttp://www.rapidhdd.com/images/251769vlcsnap-2010-11-19-07h22m21s163.png&lt;/a&gt; &lt;a href=&quot;\nhttp://www.rapidhdd.com/images/265705vlcsnap-2010-11-19-07h23m21s246.png&quot; rel=&quot;nofollow&quot; target=&quot;_NEW&quot;&gt;\nhttp://www.rapidhdd.com/images/265705vlcsnap-2010-11-19-07h23m21s246.png&lt;/a&gt;","torrent":{"xt":"urn:btih:0f0749e925251b584128984c95f51fe91c391e64","amp;dn":"The.Extra.Man.2010.LiMiTED.720p.BRRip.H264.Feel-Free","amp;tr":["udp%3A%2F%2Ftracker.openbittorrent.com%3A80","udp%3A%2F%2Fopen.demonii.com%3A1337","udp%3A%2F%2Ftracker.coppersurfer.tk%3A6969","udp%3A%2F%2Fexodus.desync.com%3A6969"],"infoHash":"0f0749e925251b584128984c95f51fe91c391e64","infoHashBuffer":{"type":"Buffer","data":[15,7,73,233,37,37,27,88,65,40,152,76,149,245,31,233,28,57,30,100]},"announce":[],"urlList":[]}}